<svg width="24" height="24" viewBox="0 0 24 24" fill="none" xmlns="http://www.w3.org/2000/svg">
<g clip-path="url(#clip0_2019_1727)">
<path d="M19.6959 0H4.3041C1.927 0 0 1.927 0 4.3041V19.6959C0 22.073 1.927 24 4.3041 24H19.6959C22.073 24 24 22.073 24 19.6959V4.3041C24 1.927 22.073 0 19.6959 0Z" fill="black"/>
<path d="M8.38089 6.37061C11.5183 6.37061 13.2851 7.8402 13.2851 10.3005C13.2851 13.1737 10.8908 14.3295 8.64509 14.3295H7.12599V17.4339H4.05469V6.37061H8.38089ZM7.12599 8.996V11.7041H8.47999C9.42119 11.7041 10.0817 11.3243 10.0817 10.3666C10.0817 9.4914 9.52029 8.996 8.54609 8.996H7.12599Z" fill="white"/>
<path d="M13.9098 16.8892L13.9264 14.3297C14.8015 14.9077 16.0233 15.271 16.8655 15.271C17.4434 15.271 17.7076 15.1058 17.7076 14.8086C17.7076 14.4784 17.3443 14.3462 16.6509 14.1316C15.3134 13.7353 13.8438 13.1904 13.8438 11.4401C13.8438 9.65672 15.3134 8.66602 17.4434 8.66602C18.4507 8.66602 19.2763 8.81462 20.0028 9.12832L19.9863 11.5722C19.4083 11.2254 18.269 10.9117 17.5259 10.9117C16.9811 10.9117 16.7664 11.0768 16.7664 11.3245C16.7664 11.6217 17.0306 11.7043 17.8232 11.952C19.3589 12.4143 20.6468 12.9097 20.6468 14.7095C20.6468 16.4268 19.2433 17.5827 17.0471 17.5827C15.8913 17.5827 14.8014 17.3845 13.9098 16.8892Z" fill="white"/>
</g>
<defs>
<clipPath id="clip0_2019_1727">
<rect width="24" height="24" fill="white"/>
</clipPath>
</defs>
</svg>
